<svg xmlns="http://www.w3.org/2000/svg" width="26" height="15" fill="none"><mask id="a" fill="#fff"><path d="M0 4.687h1.733V15h1.734V2.812H0v1.875Z"/></mask><path fill="#0D5F2E" d="M0 4.687h1.733V15h1.734V2.812H0v1.875Z"/><path fill="#0D5F2E" d="M0 4.687h-3.333v3.334H0V4.687Zm1.733 0h3.334V1.354H1.733v3.333Zm0 10.312H-1.6v3.334h3.333V15Zm1.734 0v3.334H6.8V15H3.467Zm0-12.187H6.8V-.52H3.467v3.333ZM0 2.813V-.52h-3.333v3.333H0Zm0 5.209h1.733V1.354H0v6.667Zm-1.6-3.334V15h6.667V4.687H-1.6Zm3.333 13.646h1.734v-6.667H1.733v6.667ZM6.8 15V2.811H.133V15H6.8ZM3.467-.52H0v6.666h3.467V-.521Zm-6.8 3.333v1.874h6.666V2.812h-6.666Z" mask="url(#a)"/><mask id="b" fill="#fff"><path d="M1.734 1.875h2.6v13.124h1.734V0H1.734v1.875Zm7.8 5.625c0-3.102 2.332-5.625 5.2-5.625 2.868 0 5.2 2.523 5.2 5.625h1.733c0-4.135-3.11-7.5-6.933-7.5S7.8 3.365 7.8 7.5s3.11 7.5 6.933 7.5H26v-1.876H14.734c-2.868 0-5.2-2.522-5.2-5.624Z"/></mask><path fill="#0D5F2E" d="M1.734 1.875h2.6v13.124h1.734V0H1.734v1.875Zm7.8 5.625c0-3.102 2.332-5.625 5.2-5.625 2.868 0 5.2 2.523 5.2 5.625h1.733c0-4.135-3.11-7.5-6.933-7.5S7.8 3.365 7.8 7.5s3.11 7.5 6.933 7.5H26v-1.876H14.734c-2.868 0-5.2-2.522-5.2-5.624Z"/><path fill="#0D5F2E" d="M1.734 1.875h-3.333v3.333h3.333V1.875Zm2.6 0h3.334v-3.333H4.334v3.333Zm0 13.124H1.001v3.334h3.333v-3.334Zm1.734 0v3.334H9.4v-3.334H6.068ZM6.068 0H9.4v-3.333H6.068V0ZM1.734 0v-3.333h-3.333V0h3.333Zm18.2 7.5H16.6v3.333h3.334V7.5Zm1.733 0v3.333H25V7.5h-3.333ZM26 15v3.333h3.334v-3.334H26Zm0-1.876h3.334V9.791H26v3.333ZM1.734 5.208h2.6v-6.666h-2.6v6.666Zm-.733-3.333v13.124h6.667V1.875H1Zm3.333 16.458h1.734v-6.667H4.334v6.667Zm5.067-3.334V0H2.734v15h6.667ZM6.068-3.333H1.734v6.666h4.334v-6.666ZM-1.6 0v1.875h6.667V0H-1.6Zm14.466 7.5c0-1.513 1.082-2.292 1.867-2.292v-6.666C9.784-1.458 6.2 2.808 6.2 7.5h6.666Zm1.867-2.292c.785 0 1.866.78 1.866 2.292h6.667c0-4.692-3.583-8.958-8.533-8.958v6.666Zm5.2 5.625h1.733V4.166h-1.733v6.667ZM25 7.5c0-5.725-4.36-10.833-10.266-10.833v6.666c1.74 0 3.6 1.621 3.6 4.167H25ZM14.734-3.333C8.829-3.333 4.467 1.775 4.467 7.5h6.667c0-2.546 1.86-4.167 3.6-4.167v-6.666ZM4.467 7.5c0 5.724 4.362 10.833 10.267 10.833v-6.667c-1.74 0-3.6-1.62-3.6-4.166H4.467Zm10.267 10.833H26v-6.667H14.734v6.667Zm14.6-3.334v-1.875h-6.667V15h6.666ZM26 9.791H14.734v6.667H26V9.79Zm-11.266 0c-.785 0-1.867-.779-1.867-2.291H6.201c0 4.691 3.583 8.958 8.533 8.958V9.79Z" mask="url(#b)"/><mask id="c" fill="#fff"><path d="M14.736 9.375c-.956 0-1.733-.841-1.733-1.875s.777-1.875 1.733-1.875c.956 0 1.733.84 1.733 1.875h1.734c0-2.068-1.555-3.75-3.467-3.75-1.912 0-3.466 1.682-3.466 3.75s1.554 3.75 3.466 3.75h11.266V9.375H14.736Z"/></mask><path fill="#0D5F2E" d="M14.736 9.375c-.956 0-1.733-.841-1.733-1.875s.777-1.875 1.733-1.875c.956 0 1.733.84 1.733 1.875h1.734c0-2.068-1.555-3.75-3.467-3.75-1.912 0-3.466 1.682-3.466 3.75s1.554 3.75 3.466 3.75h11.266V9.375H14.736Z"/><path fill="#0D5F2E" d="M16.47 7.5h-3.334v3.333h3.333V7.5Zm1.733 0v3.333h3.333V7.5h-3.333Zm7.8 3.75v3.333h3.333V11.25h-3.334Zm0-1.875h3.333V6.04h-3.334v3.334ZM14.735 6.04c1.127 0 1.6.903 1.6 1.459H9.67c0 2.623 2.028 5.208 5.067 5.208V6.041Zm1.6 1.459c0 .555-.473 1.458-1.6 1.458V2.292c-3.039 0-5.067 2.584-5.067 5.208h6.667Zm-1.6 1.458c-1.127 0-1.6-.903-1.6-1.458h6.667c0-2.624-2.028-5.208-5.067-5.208v6.666Zm1.733 1.875h1.734V4.167h-1.734v6.666ZM21.536 7.5c0-3.658-2.805-7.083-6.8-7.083v6.666a.11.11 0 0 1-.04-.008c-.003-.001.014.006.043.037a.57.57 0 0 1 .13.388h6.667Zm-6.8-7.083c-3.994 0-6.8 3.425-6.8 7.083h6.667c0-.195.072-.324.13-.388.029-.03.047-.038.043-.037a.112.112 0 0 1-.04.008V.417ZM7.936 7.5c0 3.657 2.806 7.083 6.8 7.083V7.916c.017 0 .034.005.04.008.004.002-.014-.006-.043-.036a.571.571 0 0 1-.13-.388H7.936Zm6.8 7.083h11.266V7.916H14.736v6.667Zm14.6-3.333V9.375h-6.667v1.875h6.667ZM26.002 6.04H14.736v6.667h11.266V6.041Z" mask="url(#c)"/></svg>