<svg xmlns="http://www.w3.org/2000/svg" width="27" height="28" fill="none"><g stroke="#000" stroke-linecap="round" stroke-linejoin="round" stroke-width="2" clip-path="url(#a)"><path d="M19.802 20.93c-1.851 1.52-4.106 2.363-6.435 2.404C5.784 23.334 1.451 14 1.451 14c1.347-2.704 3.216-5.067 5.481-6.93m4.16-2.123a9.207 9.207 0 0 1 2.275-.28C20.951 4.667 25.284 14 25.284 14a21.746 21.746 0 0 1-2.34 3.722m-7.28-1.248c-.297.344-.656.62-1.055.81a3.045 3.045 0 0 1-2.54.048 3.241 3.241 0 0 1-1.08-.77 3.533 3.533 0 0 1-.716-1.164 3.74 3.74 0 0 1 .045-2.735c.177-.43.433-.816.753-1.136M1.45 1.167l23.834 25.667"/></g><defs><clipPath id="a"><path fill="#fff" d="M.367 0h26v28h-26z"/></clipPath></defs></svg>