<svg xmlns="http://www.w3.org/2000/svg">
  <svg id="editIcon" width="29" height="29" fill="none" viewBox="0 0 29 29"><path stroke-linecap="round" stroke-linejoin="round" stroke-width="2" d="M14.61 23.934h10.5M19.86 4.684a2.475 2.475 0 1 1 3.5 3.5L8.775 22.767l-4.667 1.167 1.167-4.667L19.859 4.684Z"/></svg>
  <svg id="hiddenIcon" width="27" height="28" fill="none" viewBox="0 0 27 28"><g stroke-linecap="round" stroke-linejoin="round" stroke-width="2" clip-path="url(#a)"><path d="M19.802 20.93c-1.851 1.52-4.106 2.363-6.435 2.404C5.784 23.334 1.451 14 1.451 14c1.347-2.704 3.216-5.067 5.481-6.93m4.16-2.123a9.207 9.207 0 0 1 2.275-.28C20.951 4.667 25.284 14 25.284 14a21.746 21.746 0 0 1-2.34 3.722m-7.28-1.248c-.297.344-.656.62-1.055.81a3.045 3.045 0 0 1-2.54.048 3.241 3.241 0 0 1-1.08-.77 3.533 3.533 0 0 1-.716-1.164 3.74 3.74 0 0 1 .045-2.735c.177-.43.433-.816.753-1.136M1.45 1.167l23.834 25.667"/></g><defs><clipPath id="a"><path fill="#fff" d="M.367 0h26v28h-26z"/></clipPath></defs></svg>
  <svg id="showIcon" width="24" height="18" fill="none"><path stroke-linecap="round" stroke-linejoin="round" stroke-width="2" d="M1 9s4-8 11-8 11 8 11 8-4 8-11 8S1 9 1 9Z"/><path stroke-linecap="round" stroke-linejoin="round" stroke-width="2" d="M12 12a3 3 0 1 0 0-6 3 3 0 0 0 0 6Z"/></svg>
  <svg id="deleteIcon" width="28" height="28" fill="none" viewBox="0 0 28 28"><path stroke-linecap="round" stroke-linejoin="round" stroke-width="2" d="M3.5 7h21M22.167 7v16.333a2.333 2.333 0 0 1-2.334 2.333H8.168a2.333 2.333 0 0 1-2.333-2.333V7m3.5 0V4.666a2.333 2.333 0 0 1 2.333-2.333h4.667a2.333 2.333 0 0 1 2.333 2.333V7M11.666 12.833v7M16.334 12.833v7"/></svg>
  <svg id="plus" width="20" height="20" fill="none" viewBox="0 0 20 20"><path stroke-linecap="round" stroke-linejoin="round" stroke-width="2" d="M10 1.25v17.5M1.25 10h17.5"/></svg>
  <svg id="select-arrow" width="16" height="16" fill="none" viewBox="0 0 16 16"><path stroke-linecap="round" stroke-linejoin="round" stroke-width="2" d="M8 1v14M15 8l-7 7-7-7"/></svg>
  <svg id="resultIcon" width="22" height="26" fill="none" viewBox="0 0 22 26"><path stroke-linecap="round" stroke-linejoin="round" stroke-width="2" d="M14.75 1h-7.5C6.56 1 6 1.537 6 2.2v2.4c0 .663.56 1.2 1.25 1.2h7.5c.69 0 1.25-.537 1.25-1.2V2.2c0-.663-.56-1.2-1.25-1.2Z"/><path stroke-linecap="round" stroke-linejoin="round" stroke-width="2" d="M16 3.4h2.5c.663 0 1.299.253 1.768.703.469.45.732 1.06.732 1.697v16.8c0 .636-.263 1.247-.732 1.697A2.554 2.554 0 0 1 18.5 25h-15a2.554 2.554 0 0 1-1.768-.703A2.352 2.352 0 0 1 1 22.6V5.8c0-.637.263-1.247.732-1.697A2.554 2.554 0 0 1 3.5 3.4H6m5 8.4h5m-5 6h5m-10-6h.013M6 17.8h.013"/></svg>
</svg>
