<svg xmlns="http://www.w3.org/2000/svg" width="22" height="23" fill="none"><path fill="#0D5F2E" d="M11 0C4.928 0 0 5.152 0 11.5S4.928 23 11 23s11-5.152 11-11.5S17.072 0 11 0Zm5.104 7.82c-.165 1.817-.88 6.233-1.243 8.268-.154.863-.462 1.15-.748 1.185-.638.058-1.122-.437-1.738-.863-.968-.667-1.518-1.08-2.453-1.725-1.089-.747-.385-1.161.242-1.828.165-.172 2.981-2.852 3.036-3.093a.24.24 0 0 0-.055-.207c-.066-.058-.154-.035-.231-.024-.099.024-1.639 1.093-4.642 3.209-.44.31-.836.471-1.188.46-.396-.011-1.144-.23-1.705-.425-.693-.23-1.232-.357-1.188-.76.022-.207.297-.413.814-.632 3.212-1.46 5.346-2.426 6.413-2.886 3.058-1.335 3.685-1.565 4.103-1.565.088 0 .297.023.429.138.11.093.143.219.154.311-.011.069.011.276 0 .437Z"/></svg>