<svg xmlns="http://www.w3.org/2000/svg" width="16" height="16" fill="none"><path stroke="#0D5F2E" stroke-linecap="round" stroke-linejoin="round" stroke-width="2" d="M15 11.482v2.107a1.403 1.403 0 0 1-.957 1.337 1.41 1.41 0 0 1-.578.068 13.95 13.95 0 0 1-6.075-2.156 13.714 13.714 0 0 1-4.223-4.216 13.885 13.885 0 0 1-2.161-6.09 1.403 1.403 0 0 1 .833-1.412A1.41 1.41 0 0 1 2.407 1h2.111a1.41 1.41 0 0 1 1.408 1.208c.09.675.255 1.337.493 1.974a1.402 1.402 0 0 1-.317 1.483l-.894.892a11.251 11.251 0 0 0 4.224 4.215l.894-.892a1.409 1.409 0 0 1 1.485-.316 9.056 9.056 0 0 0 1.978.492 1.408 1.408 0 0 1 1.21 1.426Z"/></svg>