<svg xmlns="http://www.w3.org/2000/svg" width="25" height="17" fill="none" viewBox="0 0 25 17"><path fill="#0D5F2E" fill-rule="evenodd" d="M24.801 13.838a13.036 13.036 0 0 0-2.274-3.386 17.28 17.28 0 0 0-.969-1.073l-.04-.043a20.72 20.72 0 0 1-.371-.394A34.584 34.584 0 0 0 24.37 2.96l.035-.084.025-.09c.116-.414.25-1.202-.222-1.915-.488-.736-1.27-.868-1.793-.868h-2.407a2.28 2.28 0 0 0-1.423.417 2.527 2.527 0 0 0-.922 1.23 20.43 20.43 0 0 1-1.935 3.736V2.38c0-.389-.034-1.04-.425-1.588-.467-.658-1.143-.788-1.612-.788h-3.82a1.874 1.874 0 0 0-1.35.538 2.126 2.126 0 0 0-.631 1.383l-.003.051v.052c0 .554.205.963.37 1.22.074.115.152.22.203.286l.01.015c.054.071.09.118.125.17.094.135.228.346.266.887v1.683a23.334 23.334 0 0 1-1.875-4.332l-.009-.025-.008-.024c-.131-.365-.34-.895-.759-1.299C5.723.134 5.144.003 4.62.003H2.176c-.532 0-1.173.132-1.652.67C.054 1.203 0 1.838 0 2.174v.153l.03.149a22.863 22.863 0 0 0 4.071 9.16 11.232 11.232 0 0 0 3.627 3.759 10.397 10.397 0 0 0 4.827 1.602L12.6 17h.045c.778 0 1.589-.072 2.198-.505.822-.585.887-1.481.887-1.93v-1.3c.211.184.472.428.793.757.387.413.696.772.96 1.085l.142.167c.206.244.408.486.592.683.232.248.517.521.875.723.39.218.797.318 1.23.318h2.443c.515 0 1.253-.13 1.773-.773.565-.699.522-1.556.345-2.172l-.033-.11-.048-.105Zm-6.126.121a29.125 29.125 0 0 0-1.025-1.158l-.004-.004c-1.453-1.494-2.131-1.753-2.611-1.753-.256 0-.538.03-.72.274a.916.916 0 0 0-.158.398 2.988 2.988 0 0 0-.035.507v2.343c0 .291-.044.413-.17.502-.17.12-.528.217-1.298.217A8.862 8.862 0 0 1 8.515 13.9a9.581 9.581 0 0 1-3.093-3.243l-.009-.015-.01-.014a21.09 21.09 0 0 1-3.796-8.481c.004-.149.034-.239.083-.294.05-.057.174-.137.486-.137H4.62c.27 0 .412.064.514.161.113.112.214.3.334.636.6 1.88 1.41 3.64 2.177 4.932.384.646.76 1.184 1.102 1.565.17.19.336.347.495.459.154.107.328.193.508.193a.733.733 0 0 0 .31-.06.576.576 0 0 0 .269-.266c.11-.214.14-.53.14-.945V4.538c-.056-.935-.32-1.461-.577-1.835a6.435 6.435 0 0 0-.161-.22l-.014-.019c-.046-.059-.09-.12-.13-.182a.462.462 0 0 1-.092-.245.366.366 0 0 1 .114-.234.323.323 0 0 1 .233-.088h3.85c.221 0 .295.057.333.11.054.075.098.23.098.554V7.55c0 .614.266 1.03.652 1.03.443 0 .763-.286 1.322-.883l.01-.011.009-.01a22.045 22.045 0 0 0 3.042-5.394l.004-.014a.83.83 0 0 1 .309-.42.747.747 0 0 1 .483-.134h2.464c.334 0 .443.091.48.145.037.057.064.18 0 .42a32.802 32.802 0 0 1-3.244 5.94l-.009.013c-.123.202-.26.426-.278.682-.022.276.09.526.285.796.143.224.438.531.736.843l.028.03c.313.326.652.68.925 1.023l.007.008.008.01c.81.862 1.485 1.86 1.997 2.953.081.297.032.45-.032.53-.074.09-.24.176-.555.176h-2.444a.926.926 0 0 1-.479-.12 2.127 2.127 0 0 1-.486-.415c-.153-.164-.32-.361-.523-.603l-.157-.187h-.001Z" clip-rule="evenodd"/></svg>