<svg xmlns="http://www.w3.org/2000/svg" width="88" height="20" fill="none"><path fill="#0D5F2E" d="M12.317 9.163v1.954H4.824V9.162h7.493ZM.49 13.318h2.273c.196 1.279.628 2.261 1.296 2.948.67.686 1.74 1.03 3.214 1.03 1.042 0 1.912-.293 2.61-.88.704-.585 1.231-1.36 1.58-2.325.356-.965.533-2.016.533-3.152V8.915c0-1.255-.198-2.359-.595-3.312-.39-.958-.955-1.704-1.695-2.237-.734-.538-1.616-.808-2.646-.808-.9 0-1.645.16-2.237.48a3.407 3.407 0 0 0-1.385 1.376c-.332.597-.556 1.317-.675 2.157H.491c.119-1.16.435-2.19.95-3.09a5.577 5.577 0 0 1 2.175-2.13C4.552.83 5.7.57 7.061.57c1.48 0 2.758.346 3.835 1.038 1.077.687 1.909 1.655 2.495 2.903.586 1.243.879 2.7.879 4.368v2.095c0 1.67-.29 3.125-.87 4.368-.58 1.237-1.394 2.2-2.441 2.886-1.048.68-2.276 1.02-3.685 1.02-1.444 0-2.645-.26-3.604-.78-.953-.527-1.69-1.238-2.21-2.131-.516-.9-.838-1.906-.969-3.019ZM28.663 19l-6.25-8.345h-2.237V19h-2.202V.818h2.202v7.884h.959l7.28-7.884h2.627l-7.35 7.99L31.29 19h-2.628Zm6.432.249v-2.06h1.136c.438 0 .805-.086 1.101-.258a2.31 2.31 0 0 0 .746-.665c.201-.273.367-.557.497-.853l.284-.674L32.574.819h2.379L39.96 12.11 44.541.818h2.344l-6.286 15.235a10.562 10.562 0 0 1-.852 1.58 3.474 3.474 0 0 1-1.287 1.172c-.539.296-1.27.444-2.193.444h-1.172ZM49.737.819h2.628l6.179 15.091h.213L64.936.819h2.628V19h-2.06V5.186h-.178L59.645 19h-1.99l-5.68-13.814h-.178V19h-2.06V.818Zm37.582 9.09c0 1.918-.346 3.575-1.039 4.972-.692 1.396-1.642 2.474-2.85 3.231-1.207.758-2.586 1.137-4.137 1.137-1.55 0-2.93-.38-4.137-1.137-1.207-.757-2.157-1.834-2.85-3.231-.692-1.397-1.038-3.054-1.038-4.972 0-1.918.346-3.575 1.039-4.972.692-1.396 1.642-2.473 2.85-3.231C76.363.948 77.742.57 79.292.57c1.551 0 2.93.378 4.137 1.136 1.208.758 2.158 1.835 2.85 3.232.693 1.396 1.039 3.053 1.039 4.971Zm-2.13 0c0-1.574-.264-2.903-.79-3.986-.522-1.083-1.229-1.903-2.123-2.46-.887-.556-1.882-.834-2.983-.834-1.1 0-2.098.278-2.991.835-.888.556-1.596 1.376-2.122 2.459-.521 1.083-.782 2.412-.782 3.986 0 1.574.26 2.903.782 3.986.526 1.083 1.234 1.903 2.122 2.46.893.556 1.89.834 2.991.834 1.101 0 2.096-.278 2.983-.835.894-.556 1.601-1.376 2.122-2.459.527-1.083.79-2.412.79-3.986Z"/></svg>