<svg xmlns="http://www.w3.org/2000/svg" width="168" height="37" fill="none"><path fill="#0D5F2E" d="M23.568 17.114v3.75H9.182v-3.75h14.386ZM.864 25.09h4.363c.375 2.454 1.205 4.34 2.489 5.659 1.284 1.318 3.34 1.977 6.17 1.977 2 0 3.67-.562 5.012-1.687 1.352-1.125 2.363-2.614 3.034-4.466.682-1.852 1.023-3.87 1.023-6.051v-3.887c0-2.409-.381-4.528-1.142-6.358-.75-1.84-1.836-3.272-3.256-4.295-1.41-1.034-3.102-1.551-5.08-1.551-1.727 0-3.159.307-4.295.92a6.542 6.542 0 0 0-2.66 2.642c-.636 1.148-1.067 2.529-1.295 4.142H.864c.227-2.227.835-4.204 1.824-5.931 1-1.74 2.392-3.103 4.176-4.091 1.795-1 4-1.5 6.613-1.5 2.841 0 5.296.664 7.364 1.994 2.068 1.318 3.665 3.176 4.79 5.574 1.125 2.386 1.687 5.182 1.687 8.386v4.023c0 3.204-.557 6-1.67 8.386-1.114 2.375-2.676 4.222-4.688 5.54-2.011 1.307-4.37 1.96-7.074 1.96-2.772 0-5.08-.5-6.92-1.5-1.83-1.011-3.244-2.375-4.244-4.09-.989-1.728-1.608-3.66-1.858-5.796ZM54.954 36l-12-16.023h-4.296V36H34.43V1.09h4.228v15.137h1.84L54.477 1.091h5.045L45.408 16.43 59.998 36h-5.045Zm12.349.477v-3.954h2.181c.841 0 1.546-.165 2.114-.495a4.432 4.432 0 0 0 1.432-1.278 8.525 8.525 0 0 0 .954-1.636l.546-1.296L62.462 1.091h4.568l9.614 21.682L85.439 1.09h4.5L77.87 30.34a20.285 20.285 0 0 1-1.637 3.034c-.602.932-1.426 1.682-2.471 2.25-1.034.568-2.438.852-4.21.852h-2.25ZM95.415 1.091h5.045l11.864 28.977h.409l11.864-28.977h5.045V36h-3.954V9.477h-.341L114.438 36h-3.819L99.71 9.477h-.34V36h-3.955V1.09Zm72.157 17.454c0 3.682-.664 6.864-1.994 9.546-1.329 2.682-3.153 4.75-5.471 6.204-2.319 1.455-4.966 2.182-7.944 2.182-2.977 0-5.625-.727-7.943-2.181-2.318-1.455-4.142-3.523-5.471-6.205-1.33-2.682-1.995-5.864-1.995-9.546 0-3.681.665-6.863 1.995-9.545 1.329-2.682 3.153-4.75 5.471-6.205 2.318-1.454 4.966-2.181 7.943-2.181 2.978 0 5.625.727 7.944 2.181 2.318 1.455 4.142 3.523 5.471 6.205 1.33 2.682 1.994 5.864 1.994 9.546Zm-4.09 0c0-3.022-.506-5.573-1.518-7.653-1-2.08-2.357-3.653-4.073-4.722-1.705-1.068-3.614-1.602-5.728-1.602-2.113 0-4.028.534-5.744 1.602-1.705 1.069-3.062 2.643-4.074 4.722-1 2.08-1.5 4.63-1.5 7.654 0 3.022.5 5.573 1.5 7.653 1.012 2.08 2.369 3.653 4.074 4.721 1.716 1.069 3.631 1.603 5.744 1.603 2.114 0 4.023-.534 5.728-1.603 1.716-1.068 3.073-2.642 4.073-4.721 1.012-2.08 1.518-4.63 1.518-7.654Z"/></svg>