<svg width="70" height="20" viewBox="0 0 70 20" fill="none" xmlns="http://www.w3.org/2000/svg"><path d="M12.317 9.163v1.954H4.824V9.162h7.493ZM.49 13.318h2.273c.196 1.279.628 2.261 1.296 2.948.67.686 1.74 1.03 3.214 1.03 1.042 0 1.912-.293 2.61-.88.704-.585 1.231-1.36 1.58-2.325.356-.965.533-2.016.533-3.152V8.915c0-1.255-.198-2.359-.595-3.312-.39-.958-.955-1.704-1.695-2.237-.734-.538-1.616-.808-2.646-.808-.9 0-1.645.16-2.237.48a3.407 3.407 0 0 0-1.385 1.376c-.332.597-.556 1.317-.675 2.157H.491c.119-1.16.435-2.19.95-3.09a5.577 5.577 0 0 1 2.175-2.13C4.552.83 5.7.57 7.061.57c1.48 0 2.758.346 3.835 1.038 1.077.687 1.909 1.655 2.495 2.903.586 1.243.879 2.7.879 4.368v2.095c0 1.67-.29 3.125-.87 4.368-.58 1.237-1.394 2.2-2.441 2.886-1.048.68-2.276 1.02-3.685 1.02-1.444 0-2.645-.26-3.604-.78-.953-.527-1.69-1.238-2.21-2.131-.516-.9-.838-1.906-.969-3.019ZM17.974.818h2.628l6.179 15.093h.213L33.173.818h2.628V19h-2.06V5.186h-.177L27.882 19h-1.989L20.211 5.186h-.177V19h-2.06V.818ZM50.904 19l-6.25-8.345h-2.237V19h-2.202V.818h2.202v7.884h.959l7.28-7.884h2.628l-7.351 7.99L53.533 19h-2.629Zm6.432.249v-2.06h1.137c.438 0 .805-.086 1.1-.258.302-.171.55-.393.746-.665.201-.273.367-.557.497-.853l.284-.674L54.816.819h2.38L62.2 12.11 66.782.818h2.344l-6.285 15.235a10.571 10.571 0 0 1-.853 1.58 3.474 3.474 0 0 1-1.287 1.172c-.539.296-1.27.444-2.193.444h-1.172Z" fill="#0D5F2E"/></svg>