<svg width="133" height="37" viewBox="0 0 133 37" fill="none" xmlns="http://www.w3.org/2000/svg"><path d="M23.568 17.114v3.75H9.182v-3.75h14.386ZM.864 25.09h4.363c.375 2.454 1.205 4.34 2.489 5.659 1.284 1.318 3.34 1.977 6.17 1.977 2 0 3.67-.562 5.012-1.687 1.352-1.125 2.363-2.614 3.034-4.466.682-1.852 1.023-3.87 1.023-6.051v-3.887c0-2.409-.381-4.528-1.142-6.358-.75-1.84-1.836-3.272-3.256-4.295-1.41-1.034-3.102-1.551-5.08-1.551-1.727 0-3.159.307-4.295.92a6.542 6.542 0 0 0-2.66 2.642c-.636 1.148-1.067 2.529-1.295 4.142H.864c.227-2.227.835-4.204 1.824-5.931 1-1.74 2.392-3.103 4.176-4.091 1.795-1 4-1.5 6.613-1.5 2.841 0 5.296.664 7.364 1.994 2.068 1.318 3.665 3.176 4.79 5.574 1.125 2.386 1.687 5.182 1.687 8.386v4.023c0 3.204-.557 6-1.67 8.386-1.114 2.375-2.676 4.222-4.688 5.54-2.011 1.307-4.37 1.96-7.074 1.96-2.772 0-5.08-.5-6.92-1.5-1.83-1.011-3.244-2.375-4.244-4.09-.989-1.728-1.608-3.66-1.858-5.796Zm33.566-24h5.046L51.34 30.068h.409L63.612 1.091h5.046V36h-3.955V9.477h-.34L53.452 36h-3.818L38.725 9.477h-.34V36H34.43V1.09ZM97.656 36l-12-16.023h-4.295V36h-4.228V1.09h4.228v15.137h1.84L97.18 1.091h5.045L88.111 16.43 102.702 36h-5.046Zm12.35.477v-3.954h2.182c.84 0 1.545-.165 2.113-.495a4.429 4.429 0 0 0 1.432-1.278 8.548 8.548 0 0 0 .955-1.636l.545-1.296-12.068-26.727h4.568l9.614 21.682 8.795-21.682h4.5l-12.068 29.25a20.32 20.32 0 0 1-1.636 3.034c-.603.932-1.427 1.682-2.472 2.25-1.034.568-2.438.852-4.21.852h-2.25Z" fill="#0D5F2E"/></svg>